<?xml version="1.0" encoding="UTF-8"?>
<svg version="1.1" xmlns="http://www.w3.org/2000/svg" width="1024" height="1024">
<path d="M0 0 C15.61087865 13.34687304 23.527688 31.98608173 25.34765625 52.1953125 C27.78901029 89.54948255 13.09672756 121.468832 -5.75 152.71484375 C-7.0509374 154.87490596 -8.35172174 157.03506037 -9.65234375 159.1953125 C-10.59412476 160.75173462 -10.59412476 160.75173462 -11.55493164 162.33959961 C-15.19491145 168.44391054 -18.37126945 174.51431391 -20.96484375 181.1328125 C-21.30314209 181.99326172 -21.64144043 182.85371094 -21.98999023 183.74023438 C-26.38888004 195.32025486 -29.25275401 208.81798372 -23.96484375 220.6328125 C-21.23108697 225.37987753 -17.79188093 228.21856727 -12.77734375 230.5078125 C-0.67497622 233.17033336 8.41515045 227.38510502 18.53515625 221.3203125 C31.58705304 213.70421185 44.52364217 208.48749884 59.34765625 205.1953125 C59.98429199 205.04433105 60.62092773 204.89334961 61.27685547 204.73779297 C84.48153642 199.41467017 112.17519046 200.14711326 135.34765625 205.1953125 C136.53319092 205.45272217 136.53319092 205.45272217 137.74267578 205.71533203 C181.50637855 215.59062612 222.07686165 239.87490213 256.34765625 268.1953125 C256.89035156 268.64181152 257.43304687 269.08831055 257.9921875 269.54833984 C265.16608932 275.4726891 272.08876082 281.62902549 278.88671875 287.98046875 C281.33518777 290.29122182 281.33518777 290.29122182 284.34765625 292.1953125 C284.34765625 292.8553125 284.34765625 293.5153125 284.34765625 294.1953125 C284.93248779 294.45489746 285.51731934 294.71448242 286.11987305 294.98193359 C288.50635979 296.28175158 290.08067836 297.68487972 291.9921875 299.609375 C292.66958984 300.28871094 293.34699219 300.96804688 294.04492188 301.66796875 C294.74294922 302.37824219 295.44097656 303.08851563 296.16015625 303.8203125 C296.84658203 304.50738281 297.53300781 305.19445312 298.24023438 305.90234375 C302.25816083 309.9544815 306.10075218 314.11129026 309.8112793 318.44677734 C311.32261363 320.22144887 311.32261363 320.22144887 313.04614258 321.79931641 C314.34765625 323.1953125 314.34765625 323.1953125 314.34765625 325.1953125 C315.00765625 325.1953125 315.66765625 325.1953125 316.34765625 325.1953125 C317.68037505 326.66221809 318.93679494 328.19853751 320.16015625 329.7578125 C323.90535492 334.44682528 327.76299162 338.99900583 331.72265625 343.5078125 C336.45608294 348.92157459 340.98777438 354.44978699 345.3918457 360.13378906 C348.32238891 363.91147999 351.32940623 367.60122135 354.41015625 371.2578125 C359.14908214 376.90259942 363.64726318 382.70187001 368.10644531 388.56738281 C370.53401533 391.75130037 372.98947229 394.9138777 375.43945312 398.08056641 C377.8557944 401.21668909 380.22904879 404.38054851 382.57421875 407.5703125 C383.11836426 408.30725342 383.66250977 409.04419434 384.22314453 409.8034668 C385.29213461 411.25400953 386.35577354 412.70851369 387.41357422 414.16723633 C388.67741454 415.87937989 390.00690253 417.54270625 391.34765625 419.1953125 C392.00765625 419.1953125 392.66765625 419.1953125 393.34765625 419.1953125 C393.44433594 419.75863281 393.54101562 420.32195312 393.640625 420.90234375 C394.51384022 423.73426271 395.86806326 425.51932754 397.66015625 427.8828125 C398.38332031 428.85476563 399.10648438 429.82671875 399.8515625 430.828125 C400.45121826 431.6329834 400.45121826 431.6329834 401.06298828 432.45410156 C447.57527925 495.49584599 447.57527925 495.49584599 449.34765625 521.1953125 C449.01765625 522.1853125 448.68765625 523.1753125 448.34765625 524.1953125 C446.28515625 524.8828125 446.28515625 524.8828125 444.34765625 525.1953125 C444.34765625 527.27906246 444.39257123 529.36310207 444.47265625 531.4453125 C444.17315 540.43049998 444.17315 540.43049998 440.9375 543.55859375 C437.25889886 545.99702867 434.12688107 546.72941045 429.69140625 545.859375 C410.55151936 540.43640705 395.30799489 529.03733843 380.05297852 516.70605469 C372.7864309 510.8735601 365.25834136 505.28599753 357.09765625 500.7578125 C354.34765625 499.1953125 354.34765625 499.1953125 353.34765625 497.1953125 C351.70337908 496.47519111 350.03030035 495.8205573 348.34765625 495.1953125 C346.09765625 494.1953125 343.84765625 493.1953125 341.59765625 492.1953125 C336.23394347 489.86084318 331.14763381 488.06530913 325.34765625 487.1953125 C324.35765625 487.6903125 324.35765625 487.6903125 323.34765625 488.1953125 C323.34765625 487.2053125 323.34765625 486.2153125 323.34765625 485.1953125 C322.19910156 485.05996094 321.05054688 484.92460938 319.8671875 484.78515625 C317.0155702 484.42956338 314.18867941 484.01428797 311.359375 483.51171875 C281.67403404 478.26313692 251.39383322 478.64896496 221.34765625 478.1953125 C220.21162915 483.38791987 220.01457328 488.39524823 219.91015625 493.6953125 C219.86439453 494.613125 219.81863281 495.5309375 219.77148438 496.4765625 C219.6376591 504.85518821 222.51096131 510.87231548 226.34765625 518.1953125 C226.90638428 519.31663574 227.4651123 520.43795898 228.04077148 521.59326172 C229.75964298 525.03886128 231.51741244 528.46206293 233.28515625 531.8828125 C233.86716797 533.02814453 234.44917969 534.17347656 235.04882812 535.35351562 C238.67346846 542.37399841 242.61962137 548.86622723 247.34765625 555.1953125 C247.7969751 555.80044678 248.24629395 556.40558105 248.70922852 557.02905273 C250.59622619 559.54492381 252.51652316 562.03524558 254.4296875 564.53125 C257.58537544 568.91450698 258.59801794 571.61067795 258.57470703 577.06542969 C258.57455597 578.24635193 258.57440491 579.42727417 258.57424927 580.64398193 C258.5639267 581.91388977 258.55360413 583.18379761 258.54296875 584.4921875 C258.53872391 586.44804779 258.53872391 586.44804779 258.53439331 588.44342041 C258.52677346 591.902402 258.50713933 595.36121443 258.48498535 598.82012939 C258.46449128 602.35271924 258.45538399 605.88533653 258.4453125 609.41796875 C258.42389173 616.34381929 258.38977581 623.26955776 258.34765625 630.1953125 C259.00765625 630.5253125 259.66765625 630.8553125 260.34765625 631.1953125 C260.33025391 632.20851563 260.33025391 632.20851563 260.3125 633.2421875 C260.29896484 634.58023437 260.29896484 634.58023437 260.28515625 635.9453125 C260.26775391 637.26789063 260.26775391 637.26789063 260.25 638.6171875 C260.25368448 641.10860145 260.25368448 641.10860145 260.83810425 643.11442566 C261.69094278 646.59721146 261.64920391 650.17621883 261.79296875 653.74609375 C262.21878987 662.86325361 262.99537987 671.91121458 263.96728516 680.98510742 C264.22366293 683.39226433 264.46767301 685.80047091 264.7109375 688.20898438 C266.23378228 710.86212284 266.23378228 710.86212284 277.7265625 729.3359375 C284.40161657 734.58270489 291.41284282 737.37907043 299.34765625 740.1953125 C305.36214376 742.57359024 310.08708073 745.43597818 313.34765625 751.1953125 C314.65779339 755.14549957 315.58236505 759.10704636 316.34765625 763.1953125 C315.35765625 763.5253125 314.36765625 763.8553125 313.34765625 764.1953125 C311.75390625 763.33984375 311.75390625 763.33984375 309.84765625 762.0078125 C305.04281498 759.14384307 300.33411165 758.20570349 294.91015625 757.1953125 C286.20285613 755.54594165 279.25812799 753.05696702 272.03515625 747.8203125 C269.53954339 745.98870842 269.53954339 745.98870842 267.0234375 746.22265625 C263.28442723 747.58180013 261.33394133 750.17003113 258.84765625 753.1328125 C246.92408268 766.59401637 230.54417686 778.42464887 212.34765625 781.1953125 C209.80721673 781.34316877 207.26528823 781.46678925 204.72265625 781.5703125 C198.83640808 781.83977452 195.01261392 782.77178181 190.1796875 786.13671875 C188.34765625 787.1953125 188.34765625 787.1953125 184.34765625 787.1953125 C184.34765625 780.19381571 185.74518029 776.36597536 190.66015625 771.328125 C198.93029568 764.76490388 209.70434366 761.52016062 219.6171875 758.23828125 C222.44356308 757.37156682 222.44356308 757.37156682 224.34765625 755.1953125 C223.79940186 755.28095459 223.25114746 755.36659668 222.6862793 755.45483398 C209.60444783 757.48758946 196.85458312 759.25600134 183.59765625 759.3203125 C182.79255615 759.32506592 181.98745605 759.32981934 181.15795898 759.3347168 C176.45337747 759.32156054 172.00898417 758.89288942 167.34765625 758.1953125 C164.9744589 758.08366317 162.59844261 758.02086627 160.22265625 758.0078125 C158.45535156 757.98654297 158.45535156 757.98654297 156.65234375 757.96484375 C153.41069368 758.19091627 151.29160883 758.90669658 148.34765625 760.1953125 C147.35765625 760.1953125 146.36765625 760.1953125 145.34765625 760.1953125 C145.47099972 754.274826 147.26009017 751.23990921 151.35546875 746.98828125 C158.6485345 740.42452207 167.8746631 739.71817251 177.34765625 739.1953125 C178.68306602 739.52022729 180.01636297 739.85392256 181.34765625 740.1953125 C199.10930287 741.4526807 223.10536584 741.27746117 237.34765625 729.1953125 C244.44351206 719.81047094 241.2977804 705.74501582 240.39453125 694.8046875 C240.24426231 692.92706223 240.24426231 692.92706223 240.09095764 691.01150513 C239.8215057 687.6742388 239.54712148 684.33747588 239.26886368 681.00093842 C239.09685062 678.93563964 238.92650218 676.87020872 238.75643921 674.80474854 C237.11094954 654.87763559 235.38199593 634.96859204 232.34765625 615.1953125 C232.14148682 613.74137085 232.14148682 613.74137085 231.93115234 612.25805664 C230.97512632 606.16404374 229.32461469 601.27046012 226.34765625 595.8828125 C219.98795987 584.02750893 219.98795987 584.02750893 220.98632812 576.6394043 C222.2287732 565.10443131 217.75091241 555.99479967 212.84765625 545.8828125 C212.4989447 545.16250854 212.15023315 544.44220459 211.79095459 543.70007324 C209.40280306 538.81485791 206.90768096 533.99240946 204.34765625 529.1953125 C203.81741348 528.19399796 203.81741348 528.19399796 203.27645874 527.17245483 C202.24630721 525.24167868 201.19778357 523.32234991 200.140625 521.40625 C199.53500732 520.30458496 198.92938965 519.20291992 198.30541992 518.06787109 C195.70318395 514.24970069 192.69646095 512.02878341 188.7421875 509.72265625 C185.83243727 507.86668179 183.72911746 505.69459712 181.34765625 503.1953125 C174.5777844 496.17368224 167.84734008 489.27409706 160.09765625 483.3203125 C159.54916016 482.89790283 159.00066406 482.47549316 158.43554688 482.0402832 C155.68864784 479.8368717 155.68864784 479.8368717 152.34765625 479.1953125 C152.07614746 479.88455811 151.80463867 480.57380371 151.52490234 481.28393555 C150.26133464 484.4850985 148.99285349 487.6842742 147.72265625 490.8828125 C147.04130615 492.600448 147.04130615 492.600448 146.34619141 494.3527832 C143.58380208 501.26366656 140.70174785 508.01757007 137.30859375 514.64453125 C136.17129401 517.66346105 136.10581792 519.99319388 136.34765625 523.1953125 C136.67765625 523.8553125 137.00765625 524.5153125 137.34765625 525.1953125 C137.39825442 527.41609185 137.39066853 529.63829821 137.35546875 531.859375 C137.28463645 539.79127415 137.68211997 547.65589319 138.22265625 555.5703125 C138.30128906 556.85808594 138.37992188 558.14585937 138.4609375 559.47265625 C138.99994944 567.5578354 139.57165664 575.21707338 142.91015625 582.6953125 C145.62688255 589.30995044 146.11974325 594.02489935 143.41015625 600.7578125 C141.63267453 604.65273147 139.70511065 608.45782455 137.74365234 612.26269531 C121.19587525 644.54898481 96.39200795 694.36113244 96.16015625 731.1328125 C96.14597656 732.15246094 96.13179688 733.17210937 96.1171875 734.22265625 C96.36227292 737.38384273 96.7569983 739.44868091 98.34765625 742.1953125 C101.55987294 743.668857 104.87771871 744.71503256 108.25390625 745.74609375 C109.16269531 746.03291016 110.07148437 746.31972656 111.0078125 746.61523438 C112.89771964 747.20924233 114.79099782 747.79263159 116.6875 748.36523438 C123.27718624 750.47299926 126.87561512 752.92868672 131.09765625 758.5078125 C132.77132231 762.10619452 133.01299634 765.24632554 133.34765625 769.1953125 C131.69765625 769.1953125 130.04765625 769.1953125 128.34765625 769.1953125 C128.34765625 768.5353125 128.34765625 767.8753125 128.34765625 767.1953125 C122.33877389 765.24549149 116.73545267 764.03924949 110.41015625 763.7578125 C103.00967596 763.36831354 95.99719311 761.63655229 89.3984375 758.171875 C87.52119925 757.15994205 87.52119925 757.15994205 84.34765625 757.1953125 C81.70773404 759.13282684 79.46511067 761.32320364 77.12890625 763.6171875 C64.16831653 775.6312173 41.45843182 785.72759868 23.72265625 785.1953125 C22.67851562 785.15535156 21.634375 785.11539063 20.55859375 785.07421875 C15.81632358 785.25306349 11.67780701 786.66892242 7.22265625 788.22265625 C4.59853155 789.11043757 2.07252536 789.7194622 -0.65234375 790.1953125 C-1.79268298 787.49996522 -1.67435956 786.26450504 -0.77734375 783.4453125 C7.29224635 771.10358646 19.42097798 768.22482211 32.92333984 764.94458008 C34.12337646 764.64716919 34.12337646 764.64716919 35.34765625 764.34375 C36.06953125 764.17020996 36.79140625 763.99666992 37.53515625 763.81787109 C39.56763969 763.26803026 39.56763969 763.26803026 41.34765625 761.1953125 C40.53405891 761.2832457 40.53405891 761.2832457 39.70402527 761.37295532 C28.9764689 762.50569738 18.31388893 763.35363929 7.5234375 763.46875 C6.54736542 763.47988831 5.57129333 763.49102661 4.56564331 763.50250244 C0.58451508 763.54108855 -3.39637228 763.56849274 -7.37768555 763.57617188 C-21.85904451 763.3061113 -21.85904451 763.3061113 -35.54223633 767.43994141 C-38.23696282 768.404593 -39.93657906 767.95080133 -42.65234375 767.1953125 C-39.75208324 758.639544 -36.47683079 754.43150171 -28.7734375 749.625 C-18.8411263 745.07528048 -9.65260289 744.89335415 1.04916382 745.14120483 C13.10634203 745.40362952 25.05523418 745.45420614 37.03515625 743.8828125 C37.93967529 743.76486328 38.84419434 743.64691406 39.77612305 743.52539062 C50.78548512 742.32982343 50.78548512 742.32982343 60.17114258 737.43579102 C61.85732313 735.12970445 63.08335285 732.75836899 64.34765625 730.1953125 C64.91355469 729.1125 65.47945313 728.0296875 66.0625 726.9140625 C82.73068889 693.95680431 94.08692998 656.84731004 103.34765625 621.1953125 C103.63382812 620.21220093 103.63382812 620.21220093 103.92578125 619.20922852 C104.4180344 616.85934643 104.39332154 614.77760866 104.3046875 612.37890625 C103.80151711 593.07500153 103.80151711 593.07500153 108.34765625 584.1953125 C114.41517268 570.50382977 112.3883788 555.73766513 111.50537109 541.09423828 C111.40047389 539.24928166 111.3095829 537.40347385 111.23291016 535.55712891 C110.74998515 524.08715051 109.38891787 515.32753469 103.34375 505.47021484 C100.61528132 500.99373749 98.7304604 496.32208391 96.84765625 491.4453125 C96.5021875 490.58421875 96.15671875 489.723125 95.80078125 488.8359375 C93.34765625 482.60577877 93.34765625 482.60577877 93.34765625 479.1953125 C92.68765625 478.8653125 92.02765625 478.5353125 91.34765625 478.1953125 C90.40655327 475.92904271 89.5707109 473.7021801 88.78515625 471.3828125 C88.35074219 470.13886719 87.91632813 468.89492188 87.46875 467.61328125 C86.34765625 464.1953125 86.34765625 464.1953125 85.8828125 461.80859375 C85.70621094 461.27621094 85.52960938 460.74382812 85.34765625 460.1953125 C84.35765625 459.8653125 83.36765625 459.5353125 82.34765625 459.1953125 C82.34765625 458.2053125 82.34765625 457.2153125 82.34765625 456.1953125 C79.75807422 453.25578695 78.09399111 451.44409079 74.34765625 450.1953125 C73.00629661 449.20610468 71.67363578 448.20504319 70.34765625 447.1953125 C68.90425931 446.36059097 67.44335693 445.5556041 65.96875 444.77734375 C65.13545166 444.33189209 64.30215332 443.88644043 63.44360352 443.42749023 C62.56631592 442.95899658 61.68902832 442.49050293 60.78515625 442.0078125 C53.19513897 437.88856288 46.13904129 433.55261925 39.34765625 428.1953125 C38.22531403 427.33546711 37.10152765 426.4775046 35.9765625 425.62109375 C31.81231174 422.44473584 27.6595745 419.25822644 23.58984375 415.9609375 C21.48029736 414.17746708 21.48029736 414.17746708 19.34765625 413.1953125 C17.97254509 411.57816464 16.59907973 409.95959189 15.23339844 408.33447266 C10.71937414 403.21382521 5.69170781 398.54817733 0.80859375 393.78320312 C-0.0215625 392.96400391 -0.85171875 392.14480469 -1.70703125 391.30078125 C-2.84374268 390.18932739 -2.84374268 390.18932739 -4.00341797 389.05541992 C-5.65234375 387.1953125 -5.65234375 387.1953125 -5.65234375 385.1953125 C-6.255625 384.93105469 -6.85890625 384.66679687 -7.48046875 384.39453125 C-9.75657245 383.13776176 -10.82052808 382.04091088 -12.40234375 380.0078125 C-15.25093737 376.53586251 -18.39347067 373.66631384 -21.8203125 370.7734375 C-23.51425326 369.31426465 -25.09398859 367.79708932 -26.65234375 366.1953125 C-27.31234375 366.5253125 -27.97234375 366.8553125 -28.65234375 367.1953125 C-28.96171875 366.5146875 -29.27109375 365.8340625 -29.58984375 365.1328125 C-33.00872495 360.26349685 -37.90200676 356.78239221 -43.03515625 353.8203125 C-58.23334748 344.38382362 -71.34379105 329.73127554 -81.5078125 315.21484375 C-83.48883402 312.24744951 -83.48883402 312.24744951 -85.65234375 310.1953125 C-85.98234375 309.2053125 -86.31234375 308.2153125 -86.65234375 307.1953125 C-87.4229473 305.59817449 -88.19478459 304.00160584 -88.97607422 302.40966797 C-93.47233011 293.1777667 -97.37981932 283.45849039 -99.16015625 273.296875 C-99.32257813 272.60335938 -99.485 271.90984375 -99.65234375 271.1953125 C-100.31234375 270.8653125 -100.97234375 270.5353125 -101.65234375 270.1953125 C-101.39324219 269.19371094 -101.39324219 269.19371094 -101.12890625 268.171875 C-100.54643936 264.53384409 -100.75931094 261.24308646 -101.02734375 257.5703125 C-101.16269531 255.60191406 -101.16269531 255.60191406 -101.30078125 253.59375 C-101.52650714 250.21127158 -101.52650714 250.21127158 -102.65234375 247.1953125 C-102.32234375 246.2053125 -101.99234375 245.2153125 -101.65234375 244.1953125 C-101.4419435 242.17880314 -101.23557735 240.16172061 -101.05761719 238.14208984 C-98.07179185 204.59507019 -85.27901779 176.5735263 -67.65234375 148.1953125 C-51.32244832 122.86107126 -51.32244832 122.86107126 -49.15625 93.68359375 C-50.99042214 87.34259863 -53.91438663 83.75985942 -59.71484375 80.4453125 C-79.40124429 72.06812078 -105.11974325 82.66844246 -123.51220703 89.91259766 C-157.01837422 103.59953611 -187.0416973 123.90175458 -213.6171875 148.34765625 C-215.31620192 149.89013959 -217.04156986 151.33515718 -218.83984375 152.7578125 C-221.96763143 155.46856182 -224.51574241 158.42751673 -227.13671875 161.62109375 C-227.636875 162.14058594 -228.13703125 162.66007813 -228.65234375 163.1953125 C-229.31234375 163.1953125 -229.97234375 163.1953125 -230.65234375 163.1953125 C-230.884375 163.75089844 -231.11640625 164.30648437 -231.35546875 164.87890625 C-232.99336089 167.80441842 -235.06297711 169.85269443 -237.40234375 172.2578125 C-256.64020398 192.70450333 -270.96388031 217.6766894 -281.42578125 243.59765625 C-282.65234375 246.1953125 -282.65234375 246.1953125 -284.65234375 247.1953125 C-286.65234375 245.6953125 -286.65234375 245.6953125 -288.65234375 243.1953125 C-290.01563172 221.31095299 -279.81104626 199.00616982 -269.65234375 180.1953125 C-269.28850586 179.51839355 -268.92466797 178.84147461 -268.54980469 178.14404297 C-252.67821246 148.80710772 -231.29138386 123.52955123 -207.65234375 100.1953125 C-204.26524689 96.83092837 -204.26524689 96.83092837 -200.96484375 93.3828125 C-199.65234375 92.1953125 -199.65234375 92.1953125 -197.65234375 92.1953125 C-197.65234375 91.5353125 -197.65234375 90.8753125 -197.65234375 90.1953125 C-196.17538884 88.91100388 -194.69428237 87.62950542 -193.16015625 86.4140625 C-191.5142128 85.12746579 -191.5142128 85.12746579 -189.65234375 83.1953125 C-188.47001372 82.27771737 -187.27420815 81.37739338 -186.0703125 80.48828125 C-183.13654621 78.30700051 -180.22195192 76.10512028 -177.328125 73.87109375 C-176.60947266 73.31744141 -175.89082031 72.76378906 -175.15039062 72.19335938 C-173.68034317 71.05962305 -172.21161408 69.92417544 -170.74414062 68.78710938 C-167.15395599 66.02567791 -163.61779346 63.40876865 -159.65234375 61.1953125 C-159.98234375 60.5353125 -160.31234375 59.8753125 -160.65234375 59.1953125 C-159.95109375 59.10894531 -159.24984375 59.02257812 -158.52734375 58.93359375 C-154.98196121 58.02316264 -152.68080882 56.44261411 -149.65234375 54.3828125 C-143.60164803 50.36112721 -137.40272202 46.66527121 -131.08984375 43.0703125 C-129.73826172 42.2956665 -129.73826172 42.2956665 -128.359375 41.50537109 C-124.48222464 39.29904082 -120.6108531 37.13339563 -116.59375 35.19140625 C-109.45009342 31.69660945 -105.42756893 28.8124199 -102.65234375 21.1953125 C-102.32234375 20.2053125 -101.99234375 19.2153125 -101.65234375 18.1953125 C-101.32234375 18.5253125 -100.99234375 18.8553125 -100.65234375 19.1953125 C-100.33523438 18.73382813 -100.018125 18.27234375 -99.69140625 17.796875 C-92.57500158 7.84963532 -84.30063954 0.21111707 -73.65234375 -5.8046875 C-72.61980469 -6.40410156 -72.61980469 -6.40410156 -71.56640625 -7.015625 C-49.30532525 -19.10021183 -19.57296492 -15.66475269 0 0 Z " fill="#010202" transform="translate(406.65234375,124.8046875)"/>
<path d="M0 0 C1.58567839 0.1421701 3.17518632 0.24504041 4.765625 0.31640625 C5.65507813 0.35830078 6.54453125 0.40019531 7.4609375 0.44335938 C8.38132812 0.48267578 9.30171875 0.52199219 10.25 0.5625 C11.18585937 0.60568359 12.12171875 0.64886719 13.0859375 0.69335938 C15.39048641 0.7991805 17.69513839 0.90126557 20 1 C20 1.33 20 1.66 20 2 C19.04746338 1.99476318 18.09492676 1.98952637 17.11352539 1.98413086 C13.54078124 1.96587395 9.96804112 1.95449322 6.39526367 1.94506836 C4.85619409 1.94007504 3.31712916 1.93327806 1.77807617 1.92456055 C-6.20725594 1.88049997 -14.07632637 1.85516888 -22 3 C-19.14010452 0.14010452 -15.97688078 0.25222798 -12.125 -0.1875 C-11.40441406 -0.28224609 -10.68382812 -0.37699219 -9.94140625 -0.47460938 C-6.29779979 -0.9141236 -3.51046391 -0.91486835 0 0 Z " fill="#403F3E" transform="translate(588,865)"/>
<path d="M0 0 C0.33 0 0.66 0 1 0 C0.67 13.2 0.34 26.4 0 40 C-0.33 40 -0.66 40 -1 40 C-1.06058594 38.95199219 -1.12117188 37.90398437 -1.18359375 36.82421875 C-1.26801738 35.44529952 -1.35266447 34.06639395 -1.4375 32.6875 C-1.47681641 31.99720703 -1.51613281 31.30691406 -1.55664062 30.59570312 C-1.74927415 27.52838465 -2.02322717 24.93031848 -3 22 C-2.505 20.515 -2.505 20.515 -2 19 C-1.789235 17.5211813 -1.61446626 16.03703148 -1.46484375 14.55078125 C-1.37783203 13.70322266 -1.29082031 12.85566406 -1.20117188 11.98242188 C-1.11416016 11.10134766 -1.02714844 10.22027344 -0.9375 9.3125 C-0.84662109 8.41982422 -0.75574219 7.52714844 -0.66210938 6.60742188 C-0.43835801 4.40523735 -0.21777399 2.20278232 0 0 Z " fill="#2B2C2B" transform="translate(307,350)"/>
<path d="M0 0 C0.66 0.33 1.32 0.66 2 1 C1.36191406 1.61488281 0.72382812 2.22976563 0.06640625 2.86328125 C-1.17302734 4.07564453 -1.17302734 4.07564453 -2.4375 5.3125 C-3.26121094 6.11300781 -4.08492187 6.91351562 -4.93359375 7.73828125 C-7.19403477 9.90470808 -7.19403477 9.90470808 -8 13 C-6.68 13.66 -5.36 14.32 -4 15 C-5.98 15.33 -7.96 15.66 -10 16 C-9.87210139 9.86086689 -7.81786473 7.06399567 -3.69140625 2.6015625 C-2 1 -2 1 0 0 Z " fill="#2C2B2B" transform="translate(562,869)"/>
<path d="M0 0 C0 0.33 0 0.66 0 1 C-6.21324498 1.73030908 -11.84098757 2.23180249 -18 1 C-18 0.67 -18 0.34 -18 0 C-11.67370431 -0.90375653 -6.32629569 -0.90375653 0 0 Z " fill="#302F2F" transform="translate(442,908)"/>
<path d="M0 0 C0.66 0.33 1.32 0.66 2 1 C-0.97 3.97 -3.94 6.94 -7 10 C-7 7 -7 7 -4.625 4.4375 C-3.75875 3.633125 -2.8925 2.82875 -2 2 C-1.34 1.34 -0.68 0.68 0 0 Z " fill="#2C2C2C" transform="translate(375,876)"/>
<path d="M0 0 C1 4 1 4 1 7 C1.99 7.33 2.98 7.66 4 8 C2.35 8.33 0.7 8.66 -1 9 C-0.67 6.03 -0.34 3.06 0 0 Z " fill="#313231" transform="translate(592,903)"/>
<path d="M0 0 C0.99 0 1.98 0 3 0 C2.67 0.99 2.34 1.98 2 3 C1.34 2.67 0.68 2.34 0 2 C0 1.34 0 0.68 0 0 Z " fill="#2A2A28" transform="translate(624,690)"/>
<path d="M0 0 C0.66 1.32 1.32 2.64 2 4 C1.34 4 0.68 4 0 4 C0 2.68 0 1.36 0 0 Z " fill="#282827" transform="translate(616,667)"/>
<path d="M0 0 C0.66 1.32 1.32 2.64 2 4 C1.34 4 0.68 4 0 4 C0 2.68 0 1.36 0 0 Z " fill="#2B2C2B" transform="translate(625,704)"/>
<path d="M0 0 C0.33 0 0.66 0 1 0 C1 1.65 1 3.3 1 5 C0.67 5 0.34 5 0 5 C0 3.35 0 1.7 0 0 Z " fill="#282829" transform="translate(304,359)"/>
<path d="M0 0 C0.99 0.495 0.99 0.495 2 1 C1.34 1.66 0.68 2.32 0 3 C0 2.01 0 1.02 0 0 Z " fill="#2C2D2B" transform="translate(625,699)"/>
<path d="M0 0 C0.66 0.33 1.32 0.66 2 1 C1.01 1 0.02 1 -1 1 C-0.67 0.67 -0.34 0.34 0 0 Z " fill="#272927" transform="translate(338,114)"/>
<path d="M0 0 C0.66 0 1.32 0 2 0 C1.67 0.66 1.34 1.32 1 2 C0.67 1.34 0.34 0.68 0 0 Z " fill="#525151" transform="translate(366,894)"/>
<path d="M0 0 C3 1 3 1 3 1 Z " fill="#3A3938" transform="translate(569,883)"/>
<path d="M0 0 C3 1 3 1 3 1 Z " fill="#3A3A38" transform="translate(560,867)"/>
<path d="M0 0 C3 1 3 1 3 1 Z " fill="#313131" transform="translate(459,864)"/>
<path d="M0 0 C0.66 0 1.32 0 2 0 C1.67 0.66 1.34 1.32 1 2 C0.67 1.34 0.34 0.68 0 0 Z " fill="#2E2C2D" transform="translate(642,784)"/>
<path d="M0 0 C0.66 0.66 1.32 1.32 2 2 C1.34 2 0.68 2 0 2 C0 1.34 0 0.68 0 0 Z " fill="#1E1D1B" transform="translate(579,620)"/>
<path d="M0 0 C0.66 0 1.32 0 2 0 C1.67 0.66 1.34 1.32 1 2 C0.67 1.34 0.34 0.68 0 0 Z " fill="#292A28" transform="translate(256,176)"/>
<path d="M0 0 C2 1 2 1 2 1 Z " fill="#4C4C4D" transform="translate(369,893)"/>
<path d="M0 0 C2 1 2 1 2 1 Z " fill="#3A3938" transform="translate(531,892)"/>
<path d="" fill="#323431" transform="translate(0,0)"/>
<path d="M0 0 C2 1 2 1 2 1 Z " fill="#373635" transform="translate(440,888)"/>
<path d="M0 0 C2 1 2 1 2 1 Z " fill="#30302E" transform="translate(620,882)"/>
<path d="M0 0 C2 1 2 1 2 1 Z " fill="#313230" transform="translate(450,866)"/>
<path d="M0 0 C2 1 2 1 2 1 Z " fill="#30312F" transform="translate(456,865)"/>
<path d="M0 0 C2 1 2 1 2 1 Z " fill="#2D2E2D" transform="translate(632,856)"/>
<path d="" fill="#2D2E2C" transform="translate(0,0)"/>
<path d="" fill="#313130" transform="translate(0,0)"/>
<path d="" fill="#312E2F" transform="translate(0,0)"/>
<path d="" fill="#302E2F" transform="translate(0,0)"/>
<path d="M0 0 C2 1 2 1 2 1 Z " fill="#2C2A2B" transform="translate(633,725)"/>
<path d="" fill="#2B2927" transform="translate(0,0)"/>
<path d="" fill="#2A292A" transform="translate(0,0)"/>
<path d="" fill="#21201F" transform="translate(0,0)"/>
<path d="" fill="#2B2926" transform="translate(0,0)"/>
<path d="" fill="#262625" transform="translate(0,0)"/>
<path d="" fill="#1E1F1E" transform="translate(0,0)"/>
<path d="M0 0 C2 1 2 1 2 1 Z " fill="#222120" transform="translate(696,606)"/>
<path d="M0 0 C2 1 2 1 2 1 Z " fill="#1F201E" transform="translate(628,604)"/>
<path d="" fill="#242523" transform="translate(0,0)"/>
<path d="M0 0 C2 1 2 1 2 1 Z " fill="#292927" transform="translate(473,571)"/>
<path d="" fill="#262627" transform="translate(0,0)"/>
<path d="" fill="#2B2C2A" transform="translate(0,0)"/>
<path d="" fill="#2B2C2A" transform="translate(0,0)"/>
<path d="" fill="#2A2828" transform="translate(0,0)"/>
<path d="" fill="#2A2828" transform="translate(0,0)"/>
<path d="" fill="#2A2828" transform="translate(0,0)"/>
<path d="M0 0 C2 1 2 1 2 1 Z " fill="#1F2020" transform="translate(405,354)"/>
<path d="M0 0 C2 1 2 1 2 1 Z " fill="#20211F" transform="translate(604,352)"/>
<path d="" fill="#292928" transform="translate(0,0)"/>
<path d="M0 0 C2 1 2 1 2 1 Z " fill="#222120" transform="translate(568,336)"/>
<path d="M0 0 C2 1 2 1 2 1 Z " fill="#333233" transform="translate(147,282)"/>
<path d="" fill="#2F2E2D" transform="translate(0,0)"/>
<path d="M0 0 C2 1 2 1 2 1 Z " fill="#2B2A29" transform="translate(205,216)"/>
<path d="M0 0 C2 1 2 1 2 1 Z " fill="#2B2A2A" transform="translate(208,211)"/>
<path d="" fill="#2A2A28" transform="translate(0,0)"/>
<path d="M0 0 C2 1 2 1 2 1 Z " fill="#252524" transform="translate(308,207)"/>
<path d="M0 0 C2 1 2 1 2 1 Z " fill="#21201F" transform="translate(347,206)"/>
<path d="M0 0 C2 1 2 1 2 1 Z " fill="#252424" transform="translate(314,205)"/>
<path d="" fill="#2A2A29" transform="translate(0,0)"/>
<path d="M0 0 C2 1 2 1 2 1 Z " fill="#272724" transform="translate(286,160)"/>
<path d="M0 0 C2 1 2 1 2 1 Z " fill="#282829" transform="translate(346,112)"/>
<path d="" fill="#474747" transform="translate(0,0)"/>
<path d="" fill="#424242" transform="translate(0,0)"/>
<path d="" fill="#555453" transform="translate(0,0)"/>
<path d="" fill="#424342" transform="translate(0,0)"/>
<path d="" fill="#545454" transform="translate(0,0)"/>
<path d="" fill="#454645" transform="translate(0,0)"/>
<path d="" fill="#424040" transform="translate(0,0)"/>
<path d="" fill="#3D3D3A" transform="translate(0,0)"/>
<path d="" fill="#3B3C3B" transform="translate(0,0)"/>
<path d="" fill="#40403E" transform="translate(0,0)"/>
<path d="" fill="#414242" transform="translate(0,0)"/>
<path d="" fill="#3F403F" transform="translate(0,0)"/>
<path d="" fill="#393938" transform="translate(0,0)"/>
<path d="" fill="#4B4B4A" transform="translate(0,0)"/>
<path d="" fill="#363935" transform="translate(0,0)"/>
<path d="" fill="#363737" transform="translate(0,0)"/>
<path d="" fill="#383B39" transform="translate(0,0)"/>
<path d="" fill="#525251" transform="translate(0,0)"/>
<path d="" fill="#353435" transform="translate(0,0)"/>
<path d="" fill="#3C413E" transform="translate(0,0)"/>
<path d="" fill="#303131" transform="translate(0,0)"/>
<path d="" fill="#313131" transform="translate(0,0)"/>
<path d="" fill="#535353" transform="translate(0,0)"/>
<path d="" fill="#313032" transform="translate(0,0)"/>
<path d="" fill="#333130" transform="translate(0,0)"/>
<path d="" fill="#414041" transform="translate(0,0)"/>
<path d="" fill="#3F403F" transform="translate(0,0)"/>
<path d="" fill="#42423E" transform="translate(0,0)"/>
<path d="" fill="#343334" transform="translate(0,0)"/>
<path d="" fill="#3E3D3D" transform="translate(0,0)"/>
<path d="" fill="#2E302F" transform="translate(0,0)"/>
<path d="" fill="#32302E" transform="translate(0,0)"/>
<path d="" fill="#373535" transform="translate(0,0)"/>
<path d="" fill="#353534" transform="translate(0,0)"/>
<path d="" fill="#383738" transform="translate(0,0)"/>
<path d="" fill="#393938" transform="translate(0,0)"/>
<path d="" fill="#3E3D3B" transform="translate(0,0)"/>
<path d="" fill="#313133" transform="translate(0,0)"/>
<path d="" fill="#2F302F" transform="translate(0,0)"/>
<path d="" fill="#424341" transform="translate(0,0)"/>
<path d="" fill="#343532" transform="translate(0,0)"/>
<path d="" fill="#323131" transform="translate(0,0)"/>
<path d="" fill="#31302F" transform="translate(0,0)"/>
<path d="" fill="#383837" transform="translate(0,0)"/>
<path d="" fill="#4A4946" transform="translate(0,0)"/>
<path d="" fill="#2D2C2C" transform="translate(0,0)"/>
<path d="" fill="#2F2F2D" transform="translate(0,0)"/>
<path d="" fill="#40403E" transform="translate(0,0)"/>
<path d="" fill="#323030" transform="translate(0,0)"/>
<path d="" fill="#3C3D3B" transform="translate(0,0)"/>
<path d="" fill="#2D2E2D" transform="translate(0,0)"/>
<path d="" fill="#383737" transform="translate(0,0)"/>
<path d="" fill="#3E3D3D" transform="translate(0,0)"/>
<path d="" fill="#38383A" transform="translate(0,0)"/>
<path d="" fill="#3B3A3A" transform="translate(0,0)"/>
<path d="" fill="#383936" transform="translate(0,0)"/>
<path d="" fill="#333334" transform="translate(0,0)"/>
<path d="" fill="#343332" transform="translate(0,0)"/>
<path d="" fill="#353335" transform="translate(0,0)"/>
<path d="" fill="#373637" transform="translate(0,0)"/>
<path d="" fill="#32302E" transform="translate(0,0)"/>
<path d="" fill="#30302C" transform="translate(0,0)"/>
<path d="" fill="#2F2F2D" transform="translate(0,0)"/>
<path d="" fill="#2D2F2C" transform="translate(0,0)"/>
<path d="" fill="#302D2C" transform="translate(0,0)"/>
<path d="" fill="#2E2F2D" transform="translate(0,0)"/>
<path d="" fill="#2D2E2A" transform="translate(0,0)"/>
<path d="" fill="#32312F" transform="translate(0,0)"/>
<path d="" fill="#312E2F" transform="translate(0,0)"/>
<path d="" fill="#303230" transform="translate(0,0)"/>
<path d="" fill="#2F3032" transform="translate(0,0)"/>
<path d="" fill="#4E4E4C" transform="translate(0,0)"/>
<path d="" fill="#424342" transform="translate(0,0)"/>
<path d="" fill="#2D2D2B" transform="translate(0,0)"/>
<path d="" fill="#313132" transform="translate(0,0)"/>
<path d="" fill="#2D2C2C" transform="translate(0,0)"/>
<path d="" fill="#2E2D2D" transform="translate(0,0)"/>
<path d="" fill="#353231" transform="translate(0,0)"/>
<path d="" fill="#31312F" transform="translate(0,0)"/>
<path d="" fill="#2C2A29" transform="translate(0,0)"/>
<path d="" fill="#302F2E" transform="translate(0,0)"/>
<path d="" fill="#282A29" transform="translate(0,0)"/>
<path d="" fill="#2E2E2C" transform="translate(0,0)"/>
<path d="" fill="#2D302F" transform="translate(0,0)"/>
<path d="" fill="#312D2D" transform="translate(0,0)"/>
<path d="" fill="#32322F" transform="translate(0,0)"/>
<path d="" fill="#31302E" transform="translate(0,0)"/>
<path d="" fill="#31322F" transform="translate(0,0)"/>
<path d="" fill="#2F2C2D" transform="translate(0,0)"/>
<path d="" fill="#2F3030" transform="translate(0,0)"/>
<path d="" fill="#2B2C2B" transform="translate(0,0)"/>
<path d="" fill="#2F2F30" transform="translate(0,0)"/>
<path d="" fill="#2E2D2C" transform="translate(0,0)"/>
<path d="" fill="#2B2B2A" transform="translate(0,0)"/>
<path d="" fill="#2D2D2B" transform="translate(0,0)"/>
<path d="" fill="#2C2C2C" transform="translate(0,0)"/>
<path d="" fill="#2B2B28" transform="translate(0,0)"/>
<path d="" fill="#2C2C2B" transform="translate(0,0)"/>
<path d="" fill="#2A2929" transform="translate(0,0)"/>
<path d="" fill="#282829" transform="translate(0,0)"/>
<path d="" fill="#282729" transform="translate(0,0)"/>
<path d="" fill="#292A2A" transform="translate(0,0)"/>
<path d="" fill="#292726" transform="translate(0,0)"/>
<path d="" fill="#282725" transform="translate(0,0)"/>
<path d="" fill="#292A28" transform="translate(0,0)"/>
<path d="" fill="#333532" transform="translate(0,0)"/>
<path d="" fill="#323230" transform="translate(0,0)"/>
<path d="" fill="#2E2F2F" transform="translate(0,0)"/>
<path d="" fill="#252322" transform="translate(0,0)"/>
<path d="" fill="#2A2C2A" transform="translate(0,0)"/>
<path d="" fill="#2E2C2C" transform="translate(0,0)"/>
<path d="" fill="#353532" transform="translate(0,0)"/>
<path d="" fill="#282927" transform="translate(0,0)"/>
<path d="" fill="#2A2C29" transform="translate(0,0)"/>
<path d="" fill="#262725" transform="translate(0,0)"/>
<path d="" fill="#262422" transform="translate(0,0)"/>
<path d="" fill="#262626" transform="translate(0,0)"/>
<path d="" fill="#222323" transform="translate(0,0)"/>
<path d="" fill="#262824" transform="translate(0,0)"/>
<path d="" fill="#21231F" transform="translate(0,0)"/>
<path d="" fill="#262725" transform="translate(0,0)"/>
<path d="" fill="#262827" transform="translate(0,0)"/>
<path d="" fill="#262626" transform="translate(0,0)"/>
<path d="" fill="#242428" transform="translate(0,0)"/>
<path d="" fill="#252623" transform="translate(0,0)"/>
<path d="" fill="#252522" transform="translate(0,0)"/>
<path d="" fill="#212221" transform="translate(0,0)"/>
<path d="" fill="#2E2E2B" transform="translate(0,0)"/>
<path d="" fill="#272525" transform="translate(0,0)"/>
<path d="" fill="#424242" transform="translate(0,0)"/>
<path d="" fill="#222122" transform="translate(0,0)"/>
<path d="" fill="#272725" transform="translate(0,0)"/>
<path d="" fill="#2B2B28" transform="translate(0,0)"/>
<path d="" fill="#2B2C2B" transform="translate(0,0)"/>
<path d="" fill="#292B29" transform="translate(0,0)"/>
<path d="" fill="#292728" transform="translate(0,0)"/>
<path d="" fill="#21201F" transform="translate(0,0)"/>
<path d="" fill="#474748" transform="translate(0,0)"/>
<path d="" fill="#232121" transform="translate(0,0)"/>
<path d="" fill="#232123" transform="translate(0,0)"/>
<path d="" fill="#1E1E1E" transform="translate(0,0)"/>
<path d="" fill="#1D1A1C" transform="translate(0,0)"/>
<path d="" fill="#292625" transform="translate(0,0)"/>
<path d="" fill="#252322" transform="translate(0,0)"/>
<path d="" fill="#262728" transform="translate(0,0)"/>
<path d="" fill="#21201F" transform="translate(0,0)"/>
<path d="" fill="#232422" transform="translate(0,0)"/>
<path d="" fill="#212322" transform="translate(0,0)"/>
<path d="" fill="#232322" transform="translate(0,0)"/>
<path d="" fill="#1B1B1A" transform="translate(0,0)"/>
<path d="" fill="#262825" transform="translate(0,0)"/>
<path d="" fill="#1D1C1D" transform="translate(0,0)"/>
<path d="" fill="#202020" transform="translate(0,0)"/>
<path d="" fill="#222321" transform="translate(0,0)"/>
<path d="" fill="#242322" transform="translate(0,0)"/>
<path d="" fill="#1F1F1E" transform="translate(0,0)"/>
<path d="" fill="#181816" transform="translate(0,0)"/>
<path d="" fill="#1B1C19" transform="translate(0,0)"/>
<path d="" fill="#1F201E" transform="translate(0,0)"/>
<path d="" fill="#272626" transform="translate(0,0)"/>
<path d="" fill="#282828" transform="translate(0,0)"/>
<path d="" fill="#242525" transform="translate(0,0)"/>
<path d="" fill="#282627" transform="translate(0,0)"/>
<path d="" fill="#292726" transform="translate(0,0)"/>
<path d="" fill="#1E1F1E" transform="translate(0,0)"/>
<path d="" fill="#222220" transform="translate(0,0)"/>
<path d="" fill="#282828" transform="translate(0,0)"/>
<path d="" fill="#252626" transform="translate(0,0)"/>
<path d="" fill="#2B292A" transform="translate(0,0)"/>
<path d="" fill="#242322" transform="translate(0,0)"/>
<path d="" fill="#272929" transform="translate(0,0)"/>
<path d="" fill="#2B2A2B" transform="translate(0,0)"/>
<path d="" fill="#262525" transform="translate(0,0)"/>
<path d="" fill="#262828" transform="translate(0,0)"/>
<path d="" fill="#2A2727" transform="translate(0,0)"/>
<path d="" fill="#272726" transform="translate(0,0)"/>
<path d="" fill="#2A2728" transform="translate(0,0)"/>
<path d="" fill="#211F1D" transform="translate(0,0)"/>
<path d="" fill="#211F1D" transform="translate(0,0)"/>
<path d="" fill="#1D1E1E" transform="translate(0,0)"/>
<path d="" fill="#2C2B2A" transform="translate(0,0)"/>
<path d="" fill="#252624" transform="translate(0,0)"/>
<path d="" fill="#2A2C28" transform="translate(0,0)"/>
<path d="" fill="#2A2825" transform="translate(0,0)"/>
<path d="" fill="#282726" transform="translate(0,0)"/>
<path d="" fill="#212221" transform="translate(0,0)"/>
<path d="" fill="#212120" transform="translate(0,0)"/>
<path d="" fill="#2C2B29" transform="translate(0,0)"/>
<path d="" fill="#2B2C29" transform="translate(0,0)"/>
<path d="" fill="#2D2A29" transform="translate(0,0)"/>
<path d="" fill="#2C2C2D" transform="translate(0,0)"/>
<path d="" fill="#292C29" transform="translate(0,0)"/>
<path d="" fill="#2B2A29" transform="translate(0,0)"/>
<path d="" fill="#292B2A" transform="translate(0,0)"/>
<path d="" fill="#464646" transform="translate(0,0)"/>
<path d="" fill="#454746" transform="translate(0,0)"/>
<path d="" fill="#202120" transform="translate(0,0)"/>
<path d="" fill="#2D2C2A" transform="translate(0,0)"/>
<path d="" fill="#2B2D2A" transform="translate(0,0)"/>
<path d="" fill="#23221F" transform="translate(0,0)"/>
<path d="" fill="#1F1F1E" transform="translate(0,0)"/>
<path d="" fill="#494949" transform="translate(0,0)"/>
<path d="" fill="#282428" transform="translate(0,0)"/>
<path d="" fill="#2C2C2D" transform="translate(0,0)"/>
<path d="" fill="#282928" transform="translate(0,0)"/>
<path d="" fill="#2B2D2B" transform="translate(0,0)"/>
<path d="" fill="#2A2A27" transform="translate(0,0)"/>
<path d="" fill="#2A2A2A" transform="translate(0,0)"/>
<path d="" fill="#2A2B28" transform="translate(0,0)"/>
<path d="" fill="#221D1E" transform="translate(0,0)"/>
<path d="" fill="#272826" transform="translate(0,0)"/>
<path d="" fill="#24211F" transform="translate(0,0)"/>
<path d="" fill="#2C292A" transform="translate(0,0)"/>
<path d="" fill="#22221F" transform="translate(0,0)"/>
<path d="" fill="#4F4E4E" transform="translate(0,0)"/>
<path d="" fill="#474849" transform="translate(0,0)"/>
<path d="" fill="#242423" transform="translate(0,0)"/>
<path d="" fill="#222321" transform="translate(0,0)"/>
<path d="" fill="#414240" transform="translate(0,0)"/>
<path d="" fill="#282829" transform="translate(0,0)"/>
<path d="" fill="#212020" transform="translate(0,0)"/>
<path d="" fill="#262828" transform="translate(0,0)"/>
<path d="" fill="#1F2020" transform="translate(0,0)"/>
<path d="" fill="#444545" transform="translate(0,0)"/>
<path d="" fill="#48494A" transform="translate(0,0)"/>
<path d="" fill="#454643" transform="translate(0,0)"/>
<path d="" fill="#232420" transform="translate(0,0)"/>
<path d="" fill="#22211D" transform="translate(0,0)"/>
<path d="" fill="#292A29" transform="translate(0,0)"/>
<path d="" fill="#212021" transform="translate(0,0)"/>
<path d="" fill="#2B2B28" transform="translate(0,0)"/>
<path d="" fill="#201C1D" transform="translate(0,0)"/>
<path d="" fill="#282729" transform="translate(0,0)"/>
<path d="" fill="#222120" transform="translate(0,0)"/>
<path d="" fill="#222320" transform="translate(0,0)"/>
<path d="" fill="#222222" transform="translate(0,0)"/>
<path d="" fill="#232321" transform="translate(0,0)"/>
<path d="" fill="#232424" transform="translate(0,0)"/>
<path d="" fill="#3E3E3D" transform="translate(0,0)"/>
<path d="" fill="#211F1F" transform="translate(0,0)"/>
<path d="" fill="#252522" transform="translate(0,0)"/>
<path d="" fill="#3C3939" transform="translate(0,0)"/>
<path d="" fill="#242521" transform="translate(0,0)"/>
<path d="" fill="#222220" transform="translate(0,0)"/>
<path d="" fill="#3A3938" transform="translate(0,0)"/>
<path d="" fill="#3A3C3B" transform="translate(0,0)"/>
<path d="" fill="#222421" transform="translate(0,0)"/>
<path d="" fill="#3B3C39" transform="translate(0,0)"/>
<path d="" fill="#232322" transform="translate(0,0)"/>
<path d="" fill="#211F1E" transform="translate(0,0)"/>
<path d="" fill="#201E1F" transform="translate(0,0)"/>
<path d="" fill="#3A3939" transform="translate(0,0)"/>
<path d="" fill="#262627" transform="translate(0,0)"/>
<path d="" fill="#322F30" transform="translate(0,0)"/>
<path d="" fill="#212021" transform="translate(0,0)"/>
<path d="" fill="#353635" transform="translate(0,0)"/>
<path d="" fill="#272927" transform="translate(0,0)"/>
<path d="" fill="#383737" transform="translate(0,0)"/>
<path d="" fill="#363737" transform="translate(0,0)"/>
<path d="" fill="#231E1E" transform="translate(0,0)"/>
<path d="" fill="#2D2D2B" transform="translate(0,0)"/>
<path d="" fill="#353534" transform="translate(0,0)"/>
<path d="" fill="#313030" transform="translate(0,0)"/>
<path d="" fill="#343533" transform="translate(0,0)"/>
<path d="" fill="#2E3130" transform="translate(0,0)"/>
<path d="" fill="#262627" transform="translate(0,0)"/>
<path d="" fill="#212120" transform="translate(0,0)"/>
<path d="" fill="#2B2A2A" transform="translate(0,0)"/>
<path d="" fill="#282928" transform="translate(0,0)"/>
<path d="" fill="#252423" transform="translate(0,0)"/>
<path d="" fill="#232220" transform="translate(0,0)"/>
<path d="" fill="#302F30" transform="translate(0,0)"/>
<path d="" fill="#2A2828" transform="translate(0,0)"/>
<path d="" fill="#202122" transform="translate(0,0)"/>
<path d="" fill="#292B28" transform="translate(0,0)"/>
<path d="" fill="#2F2E2D" transform="translate(0,0)"/>
<path d="" fill="#292928" transform="translate(0,0)"/>
<path d="" fill="#252422" transform="translate(0,0)"/>
<path d="" fill="#252323" transform="translate(0,0)"/>
<path d="" fill="#1D1F1E" transform="translate(0,0)"/>
<path d="" fill="#2B2C2A" transform="translate(0,0)"/>
<path d="" fill="#2C2D2C" transform="translate(0,0)"/>
<path d="" fill="#2B2B29" transform="translate(0,0)"/>
<path d="" fill="#2A2928" transform="translate(0,0)"/>
<path d="" fill="#262424" transform="translate(0,0)"/>
<path d="" fill="#2D2C29" transform="translate(0,0)"/>
<path d="" fill="#2C2A29" transform="translate(0,0)"/>
<path d="" fill="#282726" transform="translate(0,0)"/>
<path d="" fill="#2B2C29" transform="translate(0,0)"/>
<path d="" fill="#1F201D" transform="translate(0,0)"/>
<path d="" fill="#2C2A2A" transform="translate(0,0)"/>
<path d="" fill="#2D2D2B" transform="translate(0,0)"/>
<path d="" fill="#22201F" transform="translate(0,0)"/>
<path d="" fill="#272727" transform="translate(0,0)"/>
<path d="" fill="#202020" transform="translate(0,0)"/>
<path d="" fill="#282727" transform="translate(0,0)"/>
<path d="" fill="#2C2C29" transform="translate(0,0)"/>
<path d="" fill="#2A2928" transform="translate(0,0)"/>
<path d="" fill="#1F2020" transform="translate(0,0)"/>
<path d="" fill="#1F221F" transform="translate(0,0)"/>
<path d="" fill="#21231F" transform="translate(0,0)"/>
<path d="" fill="#282827" transform="translate(0,0)"/>
<path d="" fill="#262725" transform="translate(0,0)"/>
<path d="" fill="#21201F" transform="translate(0,0)"/>
<path d="" fill="#232220" transform="translate(0,0)"/>
<path d="" fill="#272726" transform="translate(0,0)"/>
<path d="" fill="#222321" transform="translate(0,0)"/>
<path d="" fill="#242421" transform="translate(0,0)"/>
<path d="" fill="#232624" transform="translate(0,0)"/>
<path d="" fill="#242324" transform="translate(0,0)"/>
<path d="" fill="#2B2B2B" transform="translate(0,0)"/>
<path d="" fill="#2B2A2B" transform="translate(0,0)"/>
<path d="" fill="#2A2828" transform="translate(0,0)"/>
<path d="" fill="#2B2B2A" transform="translate(0,0)"/>
<path d="" fill="#292A28" transform="translate(0,0)"/>
<path d="" fill="#2B2A2B" transform="translate(0,0)"/>
<path d="" fill="#292827" transform="translate(0,0)"/>
<path d="" fill="#292828" transform="translate(0,0)"/>
<path d="" fill="#292828" transform="translate(0,0)"/>
<path d="" fill="#282D28" transform="translate(0,0)"/>
<path d="" fill="#2D2B2A" transform="translate(0,0)"/>
<path d="" fill="#2D292B" transform="translate(0,0)"/>
<path d="" fill="#2E2C2C" transform="translate(0,0)"/>
<path d="" fill="#2A2826" transform="translate(0,0)"/>
<path d="" fill="#262625" transform="translate(0,0)"/>
<path d="" fill="#292929" transform="translate(0,0)"/>
<path d="" fill="#292626" transform="translate(0,0)"/>
<path d="" fill="#292B29" transform="translate(0,0)"/>
<path d="" fill="#292927" transform="translate(0,0)"/>
<path d="" fill="#2A2729" transform="translate(0,0)"/>
<path d="" fill="#262725" transform="translate(0,0)"/>
<path d="" fill="#242425" transform="translate(0,0)"/>
<path d="" fill="#4F514E" transform="translate(0,0)"/>
<path d="" fill="#252424" transform="translate(0,0)"/>
<path d="" fill="#2C2B2B" transform="translate(0,0)"/>
<path d="" fill="#3E3E3E" transform="translate(0,0)"/>
<path d="" fill="#292827" transform="translate(0,0)"/>
<path d="" fill="#2B2B2A" transform="translate(0,0)"/>
<path d="" fill="#282B2A" transform="translate(0,0)"/>
<path d="" fill="#292828" transform="translate(0,0)"/>
<path d="" fill="#292B2B" transform="translate(0,0)"/>
<path d="" fill="#2D2A2C" transform="translate(0,0)"/>
<path d="" fill="#252726" transform="translate(0,0)"/>
<path d="" fill="#262525" transform="translate(0,0)"/>
<path d="" fill="#2D2D2B" transform="translate(0,0)"/>
<path d="" fill="#2B2E2A" transform="translate(0,0)"/>
<path d="" fill="#2A2C29" transform="translate(0,0)"/>
<path d="" fill="#292929" transform="translate(0,0)"/>
<path d="" fill="#474847" transform="translate(0,0)"/>
<path d="" fill="#4A4C4A" transform="translate(0,0)"/>
<path d="" fill="#505150" transform="translate(0,0)"/>
<path d="" fill="#585857" transform="translate(0,0)"/>
</svg>
